<svg xmlns="http://www.w3.org/2000/svg" width="205.2" height="136.2" viewBox="0 0 205.2 136.23"><title>Asset 1</title><g id="Layer_2" data-name="Layer 2"><g id="Layer_1-2" data-name="Layer 1"><path d="M50.8,136.23H166.1a25.91,25.91,0,0,0,6.8-.9h0l2-.5c2.6-.7,9.1-4.2,9.9-4.7l2.7-1.7a15,15,0,0,0,2.4-1.8l3.8-3.5,1.9-2.2a18.43,18.43,0,0,0,3-4.3l.9-1.6,1.8-3.7a4.18,4.18,0,0,0,.4-1l1-2.5c.1-.3.2-.6.3-1l.8-2.7a18.63,18.63,0,0,0,.7-3.4l.5-3.6c.1-1.1.2-2.1.2-3.2v-4.3h0a22.77,22.77,0,0,0-1.4-7.7l-.4-1-1-2.8a26.4,26.4,0,0,0-1.8-3.8l-1.7-3-2.4-3.5a7.55,7.55,0,0,0-1.1-1.4l-1.3-1.5a13.36,13.36,0,0,0-2.1-2l-1.8-1.5-3.4-2.6a13,13,0,0,0-1.5-1l-2.5-1.4-2-1a20.25,20.25,0,0,0-3.4-1.4l-2.8-.9-1.9-.5a19.09,19.09,0,0,0-3.3-.6l-3.8-.4-.5-2.4-.6-2.3c-.3-1.2-.7-2.4-1.1-3.6l-1-2.6-.1-.3a48.63,48.63,0,0,0-5-9.6l-.7-1.1-3.5-5.1-1.4-1.8a35.59,35.59,0,0,0-4.6-4.9l-2.5-2.3a15.58,15.58,0,0,0-2-1.6l-3.6-2.5-5.6-3.3c-.5-.3-.9-.5-1.4-.8l-4.5-2.1-4.9-2.1-4.4-1.4-3.5-.7-1.8-.3-4.6-.5L107,.23a55.55,55.55,0,0,0-14.1.5l-4.2.7a16,16,0,0,0-2.1.5L82,3.33c-.3.1-.5.2-.8.3L75.4,6a11.73,11.73,0,0,0-1.1.5L69.7,9l-3.9,2.5a31.76,31.76,0,0,0-3.7,2.7l-4,3.5-4.8,5-4,5.2a13,13,0,0,0-1,1.5l-2.7,4.7-2.3.2a19.09,19.09,0,0,0-3.3.6l-4.7,1.4-5.9,2.3a23.94,23.94,0,0,0-2.8,1.3l-2.5,1.5a33.59,33.59,0,0,0-5.4,3.9L15.8,48a20.23,20.23,0,0,0-3.1,3.4l-3.9,5.1L6.8,60a45.84,45.84,0,0,0-3.6,7.8l-1.1,3.1-.9,3.9a32.34,32.34,0,0,0-.8,5.3L0,84.93v1.8a40.25,40.25,0,0,0,1.6,11.4c.2.6,1.2,3.1,1.3,3.4l.8,1.7.7,1.7a51,51,0,0,0,4.8,8.9h0c.2.4.5.7.7,1.1h0a48.77,48.77,0,0,0,5.2,5.9l1.4,1.3,4.4,3.8h0a35.61,35.61,0,0,0,6.9,4.5l1.7.9,4.5,1.8a17.23,17.23,0,0,0,2.1.7l1.9.5A42.22,42.22,0,0,0,50.8,136.23Z" style="fill:#e7963d"/><circle cx="30.7" cy="59.23" r="5" style="fill:#393059"/><circle cx="40.7" cy="69.73" r="5" style="fill:#393059"/><circle cx="51.6" cy="59.23" r="5" style="fill:#393059"/><circle cx="51.6" cy="79.73" r="5" style="fill:#393059"/><circle cx="30.7" cy="80.23" r="5" style="fill:#393059"/><circle cx="40.7" cy="90.73" r="5" style="fill:#393059"/><circle cx="19.9" cy="90.73" r="5" style="fill:#393059"/><circle cx="19.9" cy="69.73" r="5" style="fill:#393059"/></g></g></svg>
