<svg xmlns="http://www.w3.org/2000/svg" width="336.6" height="175.63" viewBox="0 0 336.6 175.63"><title>Asset 1</title><g id="Layer_2" data-name="Layer 2"><g id="Layer_1-2" data-name="Layer 1"><path d="M45.7,136.23H149.4a21,21,0,0,0,6.1-.9h0l1.8-.5c2.3-.7,8.2-4.2,8.9-4.7l2.4-1.7a19.17,19.17,0,0,0,2.2-1.8l3.4-3.5,1.7-2.2a26.18,26.18,0,0,0,2.7-4.3l.8-1.6,1.6-3.7c.1-.3.3-.7.4-1l.9-2.5c.1-.3.2-.6.3-1l.8-2.7a34,34,0,0,0,.7-3.4l.4-3.6c.1-1.1.2-2.1.2-3.2v-4.3h0a25.27,25.27,0,0,0-1.2-7.7l-.3-1-.9-2.8a25.44,25.44,0,0,0-1.6-3.8l-1.5-3-2.1-3.5a7.1,7.1,0,0,0-1-1.4l-1.2-1.5c-.6-.7-1.2-1.4-1.8-2l-1.6-1.5-3.1-2.6a11.32,11.32,0,0,0-1.3-1l-2.2-1.4-1.8-1a20.18,20.18,0,0,0-3-1.4l-2.5-.9-1.7-.5A15,15,0,0,0,153,52l-3.5-.4-.4-2.4-.5-2.3c-.3-1.2-.6-2.4-1-3.6l-.9-2.6-.1-.3a52.68,52.68,0,0,0-4.5-9.6l-.6-1.1-3.1-5.1-1.3-1.8a32.28,32.28,0,0,0-4.1-4.9l-2.3-2.3c-.6-.6-1.2-1.1-1.8-1.6l-3.2-2.5-5-3.3a14.8,14.8,0,0,0-1.3-.8l-4.1-2.1-4.4-2.1L107,1.83l-3.1-.7-1.6-.3L98.2.33,97,.23a44.28,44.28,0,0,0-12.6.5l-3.8.7a13.32,13.32,0,0,0-1.9.5l-4.1,1.4c-.2.1-.5.2-.7.3L68.7,6a9.29,9.29,0,0,0-1,.5L63.6,9l-3.5,2.5a21.58,21.58,0,0,0-3.3,2.7l-3.6,3.5-4.3,5-3.6,5.2-.9,1.5L42,34.13l-2.1.2a13.56,13.56,0,0,0-2.9.6l-4.2,1.4-5.3,2.3a19.65,19.65,0,0,0-2.5,1.3l-2.3,1.5a29.28,29.28,0,0,0-4.8,3.9l-3.1,3.1a24.17,24.17,0,0,0-2.8,3.4l-3.5,5.1-2.4,3a44.1,44.1,0,0,0-3.2,7.8l-1,3.1-.8,3.9A32.09,32.09,0,0,0,.4,80L0,84.83v1.8A44,44,0,0,0,1.4,98c.2.6,1.1,3.1,1.2,3.4l.7,1.7.7,1.7a56.19,56.19,0,0,0,4.3,8.9h0a6.73,6.73,0,0,0,.7,1.1H9a45.07,45.07,0,0,0,4.7,5.9l1.2,1.3,3.9,3.8h0a33.79,33.79,0,0,0,6.2,4.5l1.6.9,4,1.8a10.66,10.66,0,0,0,1.9.7l1.7.5A34.78,34.78,0,0,0,45.7,136.23Z" style="fill:#6a152a"/><path d="M209,169.63h90.7a18.82,18.82,0,0,0,5.3-.7h0l1.5-.4a53.66,53.66,0,0,0,7.8-3.6l2.1-1.3a13.3,13.3,0,0,0,1.9-1.4l3-2.6,1.5-1.6a24.28,24.28,0,0,0,2.4-3.2l.7-1.2,1.4-2.8c.1-.3.2-.5.3-.8l.8-1.9c.1-.2.2-.5.3-.7l.7-2.1a11.36,11.36,0,0,0,.6-2.5l.4-2.7a19.42,19.42,0,0,0,.2-2.4v-3.2h0a16.58,16.58,0,0,0-1.1-5.8l-.3-.8-.8-2.1a15.5,15.5,0,0,0-1.4-2.9l-1.3-2.3-1.9-2.7c-.3-.4-.6-.7-.9-1.1l-1-1.1a11.37,11.37,0,0,0-1.6-1.5l-1.4-1.2-2.7-2c-.4-.3-.8-.5-1.2-.8l-1.9-1.1-1.6-.8c-.9-.4-1.7-.8-2.6-1.1l-2.2-.7-1.5-.4a20,20,0,0,0-2.6-.5l-3-.3-.4-1.8-.4-1.7a14.26,14.26,0,0,0-.9-2.7l-.8-2-.1-.2a39.75,39.75,0,0,0-4-7.3l-.6-.8-2.8-3.9-1.1-1.4a31.46,31.46,0,0,0-3.6-3.7l-2-1.7c-.5-.4-1-.8-1.6-1.2L278.5,75l-4.4-2.5c-.4-.2-.7-.4-1.1-.6l-3.5-1.6-3.8-1.6-3.4-1-2.7-.5a6.75,6.75,0,0,0-1.4-.2l-3.6-.4-1-.1a45.89,45.89,0,0,0-11.1.4l-3.3.5a7.49,7.49,0,0,0-1.6.4l-3.6,1.1c-.2.1-.4.1-.6.2l-4.5,1.8c-.3.1-.6.3-.9.4l-3.6,1.9-3.1,1.9a19.41,19.41,0,0,0-2.9,2.1l-3.2,2.6-3.7,3.8-3.1,3.9c-.3.4-.5.7-.8,1.1l-2.1,3.6-1.8.2a11.93,11.93,0,0,0-2.6.5L197.4,94l-4.7,1.8a21.4,21.4,0,0,0-2.2,1l-2,1.1a24.15,24.15,0,0,0-4.2,2.9l-2.8,2.1a18.78,18.78,0,0,0-2.4,2.5l-3,3.8-1.6,2.7a31.88,31.88,0,0,0-2.8,5.9l-.8,2.3-.7,2.9c-.3,1.3-.5,2.7-.7,4l-.3,3.6v1.3a31.33,31.33,0,0,0,1.2,8.6c.1.4.9,2.3,1,2.6l.6,1.3.6,1.3a64.23,64.23,0,0,0,3.7,6.8h0c.2.3.4.5.6.8h0a34.72,34.72,0,0,0,4.1,4.5l1.1,1,3.4,2.8h0a30.58,30.58,0,0,0,5.4,3.4l1.4.7,3.5,1.4a9.83,9.83,0,0,0,1.6.5l1.5.4A31.39,31.39,0,0,0,209,169.63Z" style="fill:none;stroke:#d46827;stroke-miterlimit:10;stroke-width:12px"/></g></g></svg>
