<svg xmlns="http://www.w3.org/2000/svg" width="288.51" height="295.83" viewBox="0 0 288.51 295.83"><title>Asset 2</title><g id="Layer_2" data-name="Layer 2"><g id="Layer_1-2" data-name="Layer 1"><path d="M49.4,289.83h98.3a22.47,22.47,0,0,0,5.8-.7h0l1.7-.5c2.2-.6,7.7-3.6,8.5-4l2.3-1.4c.7-.5,1.4-1,2.1-1.6l3.2-2.9,1.6-1.8a23.59,23.59,0,0,0,2.6-3.6l.7-1.3,1.5-3.2c.1-.3.3-.6.4-.9l.8-2.1c.1-.3.2-.5.3-.8l.7-2.3a13.56,13.56,0,0,0,.6-2.9l.4-3a24.52,24.52,0,0,0,.2-2.7v-3.6h0a18.24,18.24,0,0,0-1.2-6.5l-.3-.9-.9-2.3a24.08,24.08,0,0,0-1.5-3.3l-1.5-2.6-2-3-.9-1.2-1.1-1.3a9.76,9.76,0,0,0-1.8-1.7l-1.5-1.3-2.9-2.2a5.67,5.67,0,0,0-1.3-.8l-2.1-1.2-1.7-.9a14.76,14.76,0,0,0-2.9-1.2l-2.4-.8-1.6-.5a12.61,12.61,0,0,0-2.8-.5l-3.3-.4-.4-2-.5-2c-.2-1-.6-2-.9-3l-.8-2.2-.1-.2a42.73,42.73,0,0,0-4.3-8.2l-.5-1.2-3-4.4-1.2-1.6a38.79,38.79,0,0,0-3.9-4.2l-2.2-1.9a10.92,10.92,0,0,0-1.7-1.3l-3.1-2.1-4.7-2.8c-.4-.2-.8-.5-1.2-.7l-3.8-1.8-4.2-1.8-3.7-1.2-3-.6a7.72,7.72,0,0,0-1.5-.2l-3.9-.4-1.1-.1a48.27,48.27,0,0,0-12,.4l-3.6.6c-.6.1-1.2.3-1.8.4l-3.9,1.2a1.85,1.85,0,0,1-.7.2l-4.9,2a4.67,4.67,0,0,0-1,.5l-3.9,2.1-3.4,2.1a35.53,35.53,0,0,0-3.1,2.3l-3.4,3L52,193l-3.4,4.4a5.67,5.67,0,0,0-.8,1.3l-2.3,4-2,.2a27.41,27.41,0,0,0-2.8.5l-4,1.2-5.1,2a25.57,25.57,0,0,0-2.4,1.1l-2.2,1.2a24.27,24.27,0,0,0-4.6,3.3l-2.9,2.6a22.71,22.71,0,0,0-2.6,2.8l-3.3,4.3-1.8,3a39.73,39.73,0,0,0-3.1,6.6l-.9,2.6-.8,3.3a35,35,0,0,0-.7,4.5L6,246v1.5a35.44,35.44,0,0,0,1.3,9.7c.1.5,1,2.6,1.1,2.9l.6,1.5.6,1.5a46.56,46.56,0,0,0,4.1,7.6h0l.6.9h0a35,35,0,0,0,4.4,5l1.2,1.1,3.7,3.2h0a33.5,33.5,0,0,0,5.9,3.9l1.5.8,3.8,1.6,1.8.6,1.6.4A39.89,39.89,0,0,0,49.4,289.83Z" style="fill:none;stroke:#f1d89c;stroke-miterlimit:10;stroke-width:12px"/><g id="humaaans_standing-19" data-name="humaaans/standing-19"><g id="humaaan-3"><g id="Head_Front_Short-Beard" data-name="Head/Front/Short-Beard"><g id="Head"><path d="M237.52,203.44l13.53-3.62,2,16.75c3.07-3.2,6.36-5.22,8.23-5.21,4.54-.07,9,15.18,7.38,22.15s-17.76,14.07-21.84,2.33c-1.4-4.08-.64-8.21,1.14-12Z" style="fill:#b28b68"/></g><path id="Hair" d="M262.55,234.23c6-1.7,6.92-.82,7.88,2.76-.78.93-3.85,3-7.64,4.32a9.83,9.83,0,0,1-6.6,1.25,8.79,8.79,0,0,1-7.56-3.87c-5.38-5.39-4.34-12.71-1.17-15.94,1.28.9,2.56,1.8,3.61,2.65a3.25,3.25,0,0,0-.41,2.7,3.54,3.54,0,0,0,4.28,2.48l.39-.11c-1.57-6.62-2.22-11-2.09-13.21.21-3.47,6.28-5.92,8.5-6.52s2.36,1.85,2.7,3.11c.21.77-2.27.4-1.94,1.66s3.35,1.27,4.16,2,1.59,2.06.52,2.34c-1.45.39-4.82-1-8.2-.08-2.22.6-2.61,4.53-1.28,11.84A12.94,12.94,0,0,0,262.55,234.23Z" style="fill:#191947"/></g><g id="Bottom_Standing_Baggy-Pants" data-name="Bottom/Standing/Baggy-Pants"><polygon id="Leg" points="242.3 146.27 201.1 15.77 194.5 19.57 208.4 82.27 219.6 159.27 242.3 146.27" style="fill:#99775a"/><path id="Leg-2" data-name="Leg" d="M239.4,147.87c-18.1-17.6-46-48.6-50.5-51.2q-4.5-2.55-70.6-2.7l-1.7,7.5q61.35,9.3,62.7,10.4c1.4,1,22.4,28.5,35.3,50.3Z" style="fill:#b28b68"/><g id="Accessories_Shoe_Flat-Sneaker" data-name="Accessories/Shoe/Flat-Sneaker"><path id="shoe" d="M116.88,103.41a1.2,1.2,0,0,0,.84-1.48h0a8.3,8.3,0,0,1-.39-3.73,10.21,10.21,0,0,1,1.91-4l2.53-.56h0a.65.65,0,0,0,.42-.74l-4-16.33c0-1.2.1-2.83.19-4.59s-1.33-2.67-4.28-2.29c-3.63,20.41-5.5,31.24-5.75,32.5a23.71,23.71,0,0,0,4.5,1.32c.82.35,2.18.26,4.06-.15Z" style="fill:#e4e4e4"/></g><g id="Accessories_Shoe_Flat-Sneaker-2" data-name="Accessories/Shoe/Flat-Sneaker"><path id="shoe-2" data-name="shoe" d="M193.21,23.6a1.06,1.06,0,0,0,1.6-.3h0a8.38,8.38,0,0,1,2.6-2.7,9.9,9.9,0,0,1,4.2-1l2,1.6h0a.61.61,0,0,0,.8-.1l9.9-13.6c1-.8,2.2-1.7,3.7-2.8s1.2-2.7-1-4.7c-18,10.4-27.5,15.9-28.6,16.5a43.51,43.51,0,0,0,1.8,4.3,30.81,30.81,0,0,0,3,2.8Z" style="fill:#e4e4e4"/></g><polygon id="Pant" points="216.4 161.17 244.5 144.97 206.1 24.77 172.8 39.37 216.4 161.17" style="fill:#69a1ac"/><path id="Pant-2" data-name="Pant" d="M181.8,122.67q1.95,1.5,28.4,42l31.6-18.2c-21.1-30.1-35.6-47.7-43.3-52.8s-29.2-13.2-64.4-24.3l-6.6,36.2C162.4,116,180.5,121.77,181.8,122.67Z" style="fill:#89c6cd"/></g><g id="Body_Hoodie" data-name="Body/Hoodie"><path id="Skin" d="M257.74,140.46,272.53,127c2.84-7.51,4.68-10.88,5.62-10.13,1.41,1.07-.07,3.06.8,3.92s4.09-.42,7.1-1.76,2.6.36,2.15,1.25a50.09,50.09,0,0,1-10.18,9.1L265.17,148.6Zm-79.85-.23c-1.35-1.29-8.93-4-14-5.35-2-.55-1.91-2.2-1.41-2.8,3.92-4.85,8.51-2.41,13.56-2,5.56.44,2.88-5.58,7.2-5.23-.18,3-1.2,8.74,1.21,11.46,1,1.24,9.3,11.87,24.65,32.11l-11.43,4.25Q180.62,142.79,177.89,140.23Z" style="fill:#b28b68"/><path id="Coat-Back" d="M270,126.62l7.5,4.57c-16,23.23-12.73,55-24.78,76.56l-5,.89C237.76,183.79,234.16,144.93,270,126.62Z" style="fill:#e87725"/><path id="Shirt" d="M243.52,213.54,255,207.25c-8.3-22.9-2.11-44.81-4.74-62-.26-1.47-.88-4.41-2.78-3.67-9,3.31-23,8.32-42.1,15.24C217,182.57,227.62,201.12,243.52,213.54Z" style="fill:#dde3e9"/><path id="Coat-Front" d="M177.78,140.75l9.06-3.32a127.65,127.65,0,0,1,9.79,9.44l33.11-12c9.37,10.53,15.2,36.11,17.7,76.79l-3.68,1.57a11.32,11.32,0,0,1-1.13.5c-7.54,2.75-10.7,7.27-15.94,7.48s-8.44-3.49-6.88-13.1a7.63,7.63,0,0,1,2.86-5.08C201.86,189.21,186.92,168.39,177.78,140.75Z" style="fill:#f99b27"/><path id="Shade" d="M196.64,147l12.31-4.5c-.89,4.72-.38,11.64,1.82,20.69C205.5,156.88,200.88,151.4,196.64,147Z" style="fill:#010101;fill-opacity:0.10000000149011612"/></g></g></g><path d="M130.1,289.63H244.3a25.17,25.17,0,0,0,6.7-.9h0l1.9-.5c2.6-.7,9-4.2,9.8-4.7l2.7-1.7a15,15,0,0,0,2.4-1.8l3.7-3.5,1.9-2.2a27.35,27.35,0,0,0,3-4.3l.9-1.6,1.7-3.7a4.18,4.18,0,0,0,.4-1l1-2.5c.1-.3.2-.6.3-1l.8-2.7a18.63,18.63,0,0,0,.7-3.4l.4-3.6c.1-1.1.2-2.1.2-3.2v-4.2h0a22.77,22.77,0,0,0-1.4-7.7l-.4-1-1-2.8a26.4,26.4,0,0,0-1.8-3.8l-1.7-3-2.3-3.5a7.55,7.55,0,0,0-1.1-1.4l-1.3-1.5a18.88,18.88,0,0,0-2-2l-1.8-1.5-3.4-2.6a13,13,0,0,0-1.5-1l-2.4-1.4-2-1a23.29,23.29,0,0,0-3.3-1.4l-2.7-.9-1.9-.5a18,18,0,0,0-3.2-.6l-3.8-.4-.5-2.4-.4-2.6c-.3-1.2-.7-2.4-1.1-3.6l-1-2.6-.1-.3a48.63,48.63,0,0,0-5-9.6l-.7-1.1-3.5-5.1-1.4-1.8a35.59,35.59,0,0,0-4.6-4.9l-2.5-2.3a15.58,15.58,0,0,0-2-1.6l-3.5-2.5-5.5-3.3c-.5-.3-.9-.5-1.4-.8l-4.5-2.1-4.8-2.1L197,155l-3.4-.7-1.8-.3-4.5-.5-1.3-.1a54,54,0,0,0-13.9.5l-4.2.7a11.7,11.7,0,0,0-2,.5l-4.5,1.4c-.3.1-.5.2-.8.3l-5.7,2.4a11.73,11.73,0,0,0-1.1.5l-4.5,2.5-3.9,2.5a24.16,24.16,0,0,0-3.6,2.7l-4,3.5-4.7,5-3.9,5.2a13,13,0,0,0-1,1.5l-2.7,4.7-2.3.2a16.47,16.47,0,0,0-3.2.6l-4.6,1.4-5.9,2.3a22.45,22.45,0,0,0-2.7,1.3l-2.5,1.5a29,29,0,0,0-5.3,3.9l-3.4,3.1a25.6,25.6,0,0,0-3.1,3.4l-3.8,5.1-2.1,3.5a55.12,55.12,0,0,0-3.6,7.8l-1.1,3.1-.9,3.9a32.34,32.34,0,0,0-.8,5.3l-.4,4.8v1.8a44.06,44.06,0,0,0,1.5,11.4c.2.6,1.2,3.1,1.3,3.4l.7,1.7.7,1.7a58.1,58.1,0,0,0,4.7,8.9h0c.2.4.5.7.7,1.1h0a41.45,41.45,0,0,0,5.2,5.9l1.4,1.3,4.3,3.8h0a38.16,38.16,0,0,0,6.8,4.5l1.7.9,4.4,1.8a17.23,17.23,0,0,0,2.1.7l1.8.5A52.12,52.12,0,0,0,130.1,289.63Z" style="fill:#f1d89c"/></g></g></svg>
