<svg xmlns="http://www.w3.org/2000/svg" width="119.11" height="232.24" viewBox="0 0 119.11 232.24"><title>Asset 4</title><g id="Layer_2" data-name="Layer 2"><g id="Layer_1-2" data-name="Layer 1"><path d="M28.91,229.47l-16.5-9.8a17.44,17.44,0,0,1-5-4.4l-3.5-4.4c-2.9-4.8-2.7-11.2,2-13.6,0,0,5.2-2.8,9.7,0l5.7,3.2h0l4.7-6.1a9.1,9.1,0,0,1,8.8-4.5l3.3,1.1a8.72,8.72,0,0,1,2.1,2.5,14.4,14.4,0,0,1,.8,12.8l-1.7,4.2c-.3,1.8-2.3,4.4-3.2,6Z" style="fill:none;stroke:#e7963e;stroke-miterlimit:10;stroke-width:4px"/><path d="M26.81,42.07l26.3-28.7-2.2-3.1a25.26,25.26,0,0,0-32.4-7.2L15,5Z" style="fill:#e7963e"/><circle cx="27.31" cy="9.47" r="4.2" style="fill:#24202c"/><circle cx="30.81" cy="23.07" r="4.2" style="fill:#24202c"/><path d="M90.81,105.87l5.8-7A15.53,15.53,0,0,0,95.51,78l-4.7-4.7.1-.1a16.12,16.12,0,0,1,17.4-.4l.6.4a23.27,23.27,0,0,1,8.3,9.3c2,4.4,3.2,10.3-.5,16.5l-.8,1.3a14.75,14.75,0,0,1-2.9,3.2l-.1.1a20.65,20.65,0,0,1-20.3,2.9Z" style="fill:#e7963e"/></g></g></svg>
