<svg xmlns="http://www.w3.org/2000/svg" width="198.54" height="124.93" viewBox="0 0 198.56 124.93"><title>Asset 2</title><g id="Layer_2" data-name="Layer 2"><g id="Layer_1-2" data-name="Layer 1"><path d="M10.36,2.43l.2-.3a5.1,5.1,0,0,1,7.1-1.2h0l18,7.8,4.2,9.5-9,20.8h0a3.26,3.26,0,0,1-4.3,1.7l-.7-.3-23.3-9.6h0a3.13,3.13,0,0,1-2.4-4.1l.3-.7Z" style="fill:#e7963e"/><polygon points="11.56 9.63 14.26 3.83 30.86 10.93 27.76 16.93 11.56 9.63" style="fill:#23202c"/><circle cx="17.96" cy="27.13" r="5.6" style="fill:#22202b"/><circle cx="169.96" cy="96.03" r="7.8" style="fill:#d48b3a"/><rect x="167.26" y="67.33" width="5.2" height="15.5" style="fill:#d48b3a"/><polygon points="177.76 84.93 181.06 88.33 186.76 82.83 182.26 79.13 177.76 84.93" style="fill:#d48b3a"/><rect x="183.06" y="93.33" width="15.5" height="5.8" style="fill:#d48b3a"/><polygon points="186.76 109.13 183.06 112.63 177.76 106.83 181.26 103.83 186.76 109.13" style="fill:#d48b3a"/><polygon points="158.86 103.83 162.26 107.13 157.06 112.63 153.36 109.13 158.86 103.83" style="fill:#d48b3a"/><rect x="141.36" y="93.33" width="15.5" height="5.8" style="fill:#d48b3a"/><polygon points="158.86 88.33 162.26 85.13 156.86 79.13 153.36 82.83 158.86 88.33" style="fill:#d48b3a"/><rect x="167.26" y="108.93" width="5.2" height="16" style="fill:#d48b3a"/></g></g></svg>
